<?xml version="1.0" encoding="utf-8"?>
<!-- Generator: Adobe Illustrator 22.1.0, SVG Export Plug-In . SVG Version: 6.00 Build 0)  -->
<svg version="1.1" id="Layer_1" xmlns="http://www.w3.org/2000/svg" xmlns:xlink="http://www.w3.org/1999/xlink" x="0px" y="0px"
	 viewBox="0 0 792 612" style="enable-background:new 0 0 792 612;" xml:space="preserve">
<style type="text/css">
	.st0{fill:url(#ash_1_);}
	.st1{fill:#F4F4F4;}
	.st2{fill:url(#butt_1_);}
	.st3{fill:url(#gold_1_);}
</style>
<g id="cigarette">
	
		<linearGradient id="ash_1_" gradientUnits="userSpaceOnUse" x1="645.1019" y1="308.1807" x2="666.1096" y2="308.1807" gradientTransform="matrix(1 0 0 -1 0 614)">
		<stop  offset="0" style="stop-color:#190B0C"/>
		<stop  offset="1" style="stop-color:#913B29"/>
	</linearGradient>
	<path id="ash" class="st0" d="M646,281.2c0,0,6.7,9.3,5.9,14.8s-7.7,8.7-6.7,13.7c1,5,3.6,7.5,3.4,10.7c-0.2,3.2-2.5,2.5-1.9,6.8
		s0.6,4.3,0.6,4.3s11.6-1.1,15.2,0s2.7-3.9,2.7-3.9s-4.2-2.5-3.4-7.5c0.8-5,6.1-4.8,3.5-9.3c-2.6-4.6,2.3-7.5-0.7-12.1
		c-3-4.6,2.4-5.2,1.4-10s2.1-7.3-2.1-5.5c-4.4,1.8-4.6-3-4.8-3.2C658.8,279.8,646,281.2,646,281.2z"/>
	<path id="body" class="st1" d="M300.3,278.9h352.2v52.8H300.3C300.3,331.6,275.7,317.3,300.3,278.9z"/>
	
		<linearGradient id="butt_1_" gradientUnits="userSpaceOnUse" x1="213.839" y1="509.6385" x2="213.839" y2="456.8385" gradientTransform="matrix(1 0 0 1 0 -178)">
		<stop  offset="0" style="stop-color:#9E4C23"/>
		<stop  offset="1" style="stop-color:#FEC35F"/>
	</linearGradient>
	<path id="butt" class="st2" d="M136.9,278.9h158.8v52.8H136.9C136.9,331.6,125.8,317.3,136.9,278.9z"/>
	
		<radialGradient id="gold_1_" cx="312.7297" cy="431.6952" r="7.2992" gradientTransform="matrix(2.2005 0 0 2.6633 -392.4063 -844.5043)" gradientUnits="userSpaceOnUse">
		<stop  offset="0" style="stop-color:#C4BF9B"/>
		<stop  offset="0.1923" style="stop-color:#C4C097"/>
		<stop  offset="0.3862" style="stop-color:#C5BD8F"/>
		<stop  offset="0.5808" style="stop-color:#C4BB82"/>
		<stop  offset="0.776" style="stop-color:#C5B871"/>
		<stop  offset="0.97" style="stop-color:#C4B358"/>
		<stop  offset="1" style="stop-color:#C5B353"/>
	</radialGradient>
	<path id="gold" class="st3" d="M295,278.9h7.1c0,0-11.8,20.6,0,52.8H295C295,331.6,282.3,307.8,295,278.9z"/>
</g>
</svg>
