<?xml version="1.0" encoding="utf-8"?>
<!-- Generator: Adobe Illustrator 22.1.0, SVG Export Plug-In . SVG Version: 6.00 Build 0)  -->
<svg version="1.1" id="Layer_1" xmlns="http://www.w3.org/2000/svg" xmlns:xlink="http://www.w3.org/1999/xlink" x="0px" y="0px"
	 viewBox="0 0 792 612" style="enable-background:new 0 0 792 612;" xml:space="preserve">
<style type="text/css">
	.st0{fill:url(#ash_2_);}
	.st1{fill:#F4F4F4;}
	.st2{fill:url(#butt_2_);}
	.st3{fill:url(#gold_2_);}
</style>
<g id="cigarette_1_">
	
		<linearGradient id="ash_2_" gradientUnits="userSpaceOnUse" x1="585.1435" y1="372.9615" x2="610.1325" y2="372.9615" gradientTransform="matrix(1 0 0 -1 0 614)">
		<stop  offset="0" style="stop-color:#190B0C"/>
		<stop  offset="1" style="stop-color:#913B29"/>
	</linearGradient>
	<path id="ash_1_" class="st0" d="M586.2,216.4c0,0,8.1,9.3,7,14.8c-1,5.5-9.2,8.7-8.1,13.7c1.2,5,4.3,7.5,4,10.7
		c-0.2,3.2-3,2.5-2.3,6.8c0.8,4.3,0.8,4.3,0.8,4.3s13.8-1.1,18.1,0s3.2-3.9,3.2-3.9s-4.9-2.5-4-7.5s7.3-4.8,4.1-9.3
		c-3.1-4.6,2.9-7.5-0.9-12.1c-3.5-4.6,2.9-5.2,1.7-10s2.5-7.3-2.5-5.5c-5.1,1.8-5.4-3-5.6-3.2C601.5,215,586.2,216.4,586.2,216.4z"
		/>
	<path id="body_1_" class="st1" d="M174.9,214.1h419v52.8h-419C174.9,266.8,145.8,252.5,174.9,214.1z"/>
	
		<linearGradient id="butt_2_" gradientUnits="userSpaceOnUse" x1="86.4547" y1="444.8578" x2="86.4547" y2="392.0578" gradientTransform="matrix(1 0 0 1 0 -178)">
		<stop  offset="0" style="stop-color:#9E4C23"/>
		<stop  offset="1" style="stop-color:#FEC35F"/>
	</linearGradient>
	<path id="butt_1_" class="st2" d="M9.5,214.1h158.8v52.8H9.5C9.5,266.8-1.6,252.5,9.5,214.1z"/>
	
		<radialGradient id="gold_2_" cx="254.8435" cy="407.3717" r="7.2992" gradientTransform="matrix(2.2005 0 0 2.6633 -392.4063 -844.5042)" gradientUnits="userSpaceOnUse">
		<stop  offset="0" style="stop-color:#C4BF9B"/>
		<stop  offset="0.1923" style="stop-color:#C4C097"/>
		<stop  offset="0.3862" style="stop-color:#C5BD8F"/>
		<stop  offset="0.5808" style="stop-color:#C4BB82"/>
		<stop  offset="0.776" style="stop-color:#C5B871"/>
		<stop  offset="0.97" style="stop-color:#C4B358"/>
		<stop  offset="1" style="stop-color:#C5B353"/>
	</radialGradient>
	<path id="gold_1_" class="st3" d="M167.6,214.1h7.1c0,0-11.8,20.6,0,52.8h-7.1C167.6,266.8,154.9,243,167.6,214.1z"/>
</g>
</svg>
