<?xml version="1.0" encoding="utf-8"?>
<!-- Generator: Adobe Illustrator 22.1.0, SVG Export Plug-In . SVG Version: 6.00 Build 0)  -->
<svg version="1.1" id="Layer_1" xmlns="http://www.w3.org/2000/svg" xmlns:xlink="http://www.w3.org/1999/xlink" x="0px" y="0px"
	 viewBox="0 0 792 612" style="enable-background:new 0 0 792 612;" xml:space="preserve">
<style type="text/css">
	.st0{fill:url(#ash_1_);}
	.st1{fill:#F4F4F4;}
	.st2{fill:url(#butt_1_);}
	.st3{fill:url(#gold_1_);}
</style>
<g id="cigarette">
	
		<linearGradient id="ash_1_" gradientUnits="userSpaceOnUse" x1="545.5714" y1="238.5193" x2="568.2012" y2="238.5193" gradientTransform="matrix(1 0 0 1 0 2)">
		<stop  offset="0" style="stop-color:#190B0C"/>
		<stop  offset="1" style="stop-color:#913B29"/>
	</linearGradient>
	<path id="ash" class="st0" d="M546.5,215.9c0,0,7.3,9.3,6.3,14.8c-0.9,5.5-8.3,8.7-7.3,13.7c1.1,5,3.9,7.5,3.6,10.7
		c-0.2,3.2-2.7,2.5-2.1,6.8c0.7,4.3,0.7,4.3,0.7,4.3s12.5-1.1,16.4,0s2.9-3.9,2.9-3.9s-4.4-2.5-3.6-7.5c0.8-5,6.6-4.8,3.7-9.3
		c-2.8-4.6,2.6-7.5-0.8-12.1c-3.2-4.6,2.6-5.2,1.5-10s2.3-7.3-2.3-5.5s-4.9-3-5.1-3.2C560.4,214.5,546.5,215.9,546.5,215.9z"/>
	<path id="body" class="st1" d="M174.1,213.6h379.4v52.8H174.1C174.1,266.3,147.7,252,174.1,213.6z"/>
	
		<linearGradient id="butt_1_" gradientUnits="userSpaceOnUse" x1="86.8333" y1="167.6615" x2="86.8333" y2="220.4615" gradientTransform="matrix(1 0 0 -1 0 434)">
		<stop  offset="0" style="stop-color:#9E4C23"/>
		<stop  offset="1" style="stop-color:#FEC35F"/>
	</linearGradient>
	<path id="butt" class="st2" d="M9.9,213.6h158.8v52.8H9.9C9.9,266.3-1.2,252,9.9,213.6z"/>
	
		<radialGradient id="gold_1_" cx="255.0156" cy="204.8233" r="7.2992" gradientTransform="matrix(2.2005 0 0 -2.6633 -392.4063 785.4354)" gradientUnits="userSpaceOnUse">
		<stop  offset="0" style="stop-color:#C4BF9B"/>
		<stop  offset="0.1923" style="stop-color:#C4C097"/>
		<stop  offset="0.3862" style="stop-color:#C5BD8F"/>
		<stop  offset="0.5808" style="stop-color:#C4BB82"/>
		<stop  offset="0.776" style="stop-color:#C5B871"/>
		<stop  offset="0.97" style="stop-color:#C4B358"/>
		<stop  offset="1" style="stop-color:#C5B353"/>
	</radialGradient>
	<path id="gold" class="st3" d="M168,213.6h7.1c0,0-11.8,20.6,0,52.8H168C168,266.3,155.3,242.5,168,213.6z"/>
</g>
</svg>
