<?xml version="1.0" encoding="utf-8"?>
<!-- Generator: Adobe Illustrator 22.1.0, SVG Export Plug-In . SVG Version: 6.00 Build 0)  -->
<svg version="1.1" id="Layer_1" xmlns="http://www.w3.org/2000/svg" xmlns:xlink="http://www.w3.org/1999/xlink" x="0px" y="0px"
	 viewBox="0 0 792 612" style="enable-background:new 0 0 792 612;" xml:space="preserve">
<style type="text/css">
	.st0{fill:url(#ash_1_);}
	.st1{fill:#F4F4F4;}
	.st2{fill:url(#butt_1_);}
	.st3{fill:url(#gold_1_);}
</style>
<g id="cigarette">
	
		<linearGradient id="ash_1_" gradientUnits="userSpaceOnUse" x1="595.2751" y1="308.1807" x2="610.0335" y2="308.1807" gradientTransform="matrix(1 0 0 -1 0 614)">
		<stop  offset="0" style="stop-color:#190B0C"/>
		<stop  offset="1" style="stop-color:#913B29"/>
	</linearGradient>
	<path id="ash" class="st0" d="M595.9,281.2c0,0,4.7,9.3,4.1,14.8c-0.6,5.5-5.4,8.7-4.7,13.7c0.7,5,2.5,7.5,2.4,10.7
		s-1.8,2.5-1.4,6.8s0.4,4.3,0.4,4.3s8.2-1.1,10.7,0c2.5,1.1,1.9-3.9,1.9-3.9s-2.9-2.5-2.4-7.5c0.6-5,4.3-4.8,2.4-9.3
		c-1.9-4.6,1.6-7.5-0.5-12.1c-2.1-4.6,1.7-5.2,1-10s1.5-7.3-1.5-5.5c-3.1,1.8-3.2-3-3.4-3.2S595.9,281.2,595.9,281.2z"/>
	<path id="body" class="st1" d="M353,278.9h247.4v52.8H353C353,331.6,335.7,317.3,353,278.9z"/>
	
		<linearGradient id="butt_1_" gradientUnits="userSpaceOnUse" x1="269.839" y1="509.6385" x2="269.839" y2="456.8385" gradientTransform="matrix(1 0 0 1 0 -178)">
		<stop  offset="0" style="stop-color:#9E4C23"/>
		<stop  offset="1" style="stop-color:#FEC35F"/>
	</linearGradient>
	<path id="butt" class="st2" d="M192.9,278.9h158.8v52.8H192.9C192.9,331.6,181.8,317.3,192.9,278.9z"/>
	
		<radialGradient id="gold_1_" cx="338.1788" cy="431.6952" r="7.2992" gradientTransform="matrix(2.2005 0 0 2.6633 -392.4063 -844.5043)" gradientUnits="userSpaceOnUse">
		<stop  offset="0" style="stop-color:#C4BF9B"/>
		<stop  offset="0.1923" style="stop-color:#C4C097"/>
		<stop  offset="0.3862" style="stop-color:#C5BD8F"/>
		<stop  offset="0.5808" style="stop-color:#C4BB82"/>
		<stop  offset="0.776" style="stop-color:#C5B871"/>
		<stop  offset="0.97" style="stop-color:#C4B358"/>
		<stop  offset="1" style="stop-color:#C5B353"/>
	</radialGradient>
	<path id="gold" class="st3" d="M351,278.9h7.1c0,0-11.8,20.6,0,52.8H351C351,331.6,338.3,307.8,351,278.9z"/>
</g>
</svg>
