<?xml version="1.0" encoding="utf-8"?>
<!-- Generator: Adobe Illustrator 22.1.0, SVG Export Plug-In . SVG Version: 6.00 Build 0)  -->
<svg version="1.1" id="Layer_1" xmlns="http://www.w3.org/2000/svg" xmlns:xlink="http://www.w3.org/1999/xlink" x="0px" y="0px"
	 viewBox="0 0 792 612" style="enable-background:new 0 0 792 612;" xml:space="preserve">
<style type="text/css">
	.st0{fill:url(#ash_1_);}
	.st1{fill:#F4F4F4;}
	.st2{fill:url(#butt_1_);}
	.st3{fill:url(#gold_1_);}
</style>
<g id="cigarette">
	
		<linearGradient id="ash_1_" gradientUnits="userSpaceOnUse" x1="568.5516" y1="308.1807" x2="579.9012" y2="308.1807" gradientTransform="matrix(1 0 0 -1 0 614)">
		<stop  offset="0" style="stop-color:#190B0C"/>
		<stop  offset="1" style="stop-color:#913B29"/>
	</linearGradient>
	<path id="ash" class="st0" d="M569,281.2c0,0,3.6,9.3,3.2,14.8s-4.2,8.7-3.6,13.7c0.6,5,1.9,7.5,1.8,10.7c-0.1,3.2-1.4,2.5-1,6.8
		c0.3,4.3,0.3,4.3,0.3,4.3s6.3-1.1,8.2,0s1.5-3.9,1.5-3.9s-2.3-2.5-1.8-7.5c0.4-5,3.3-4.8,1.9-9.3c-1.4-4.6,1.3-7.5-0.4-12.1
		c-1.6-4.6,1.3-5.2,0.8-10c-0.6-4.8,1.2-7.3-1.2-5.5c-2.4,1.8-2.5-3-2.6-3.2C576,279.8,569,281.2,569,281.2z"/>
	<path id="body" class="st1" d="M382.3,278.9h190.3v52.8H382.3C382.3,331.6,369,317.3,382.3,278.9z"/>
	
		<linearGradient id="butt_1_" gradientUnits="userSpaceOnUse" x1="300.839" y1="509.6385" x2="300.839" y2="456.8385" gradientTransform="matrix(1 0 0 1 0 -178)">
		<stop  offset="0" style="stop-color:#9E4C23"/>
		<stop  offset="1" style="stop-color:#FEC35F"/>
	</linearGradient>
	<path id="butt" class="st2" d="M223.9,278.9h158.8v52.8H223.9C223.9,331.6,212.8,317.3,223.9,278.9z"/>
	
		<radialGradient id="gold_1_" cx="352.2667" cy="431.6952" r="7.2992" gradientTransform="matrix(2.2005 0 0 2.6633 -392.4063 -844.5043)" gradientUnits="userSpaceOnUse">
		<stop  offset="0" style="stop-color:#C4BF9B"/>
		<stop  offset="0.1923" style="stop-color:#C4C097"/>
		<stop  offset="0.3862" style="stop-color:#C5BD8F"/>
		<stop  offset="0.5808" style="stop-color:#C4BB82"/>
		<stop  offset="0.776" style="stop-color:#C5B871"/>
		<stop  offset="0.97" style="stop-color:#C4B358"/>
		<stop  offset="1" style="stop-color:#C5B353"/>
	</radialGradient>
	<path id="gold" class="st3" d="M382,278.9h7.1c0,0-11.8,20.6,0,52.8H382C382,331.6,369.3,307.8,382,278.9z"/>
</g>
</svg>
