<?xml version="1.0" encoding="utf-8"?>
<!-- Generator: Adobe Illustrator 22.1.0, SVG Export Plug-In . SVG Version: 6.00 Build 0)  -->
<svg version="1.1" id="Layer_1" xmlns="http://www.w3.org/2000/svg" xmlns:xlink="http://www.w3.org/1999/xlink" x="0px" y="0px"
	 viewBox="0 0 792 612" style="enable-background:new 0 0 792 612;" xml:space="preserve">
<style type="text/css">
	.st0{fill:url(#ash_1_);}
	.st1{fill:#F4F4F4;}
	.st2{fill:url(#butt_1_);}
	.st3{fill:url(#gold_1_);}
</style>
<g id="cigarette">
	
		<linearGradient id="ash_1_" gradientUnits="userSpaceOnUse" x1="406.3882" y1="374.4807" x2="421.2718" y2="374.4807" gradientTransform="matrix(1 0 0 -1 0 614)">
		<stop  offset="0" style="stop-color:#190B0C"/>
		<stop  offset="1" style="stop-color:#913B29"/>
	</linearGradient>
	<path id="ash" class="st0" d="M406.9,214.9c0,0,4.7,9.3,4.2,14.8c-0.5,5.5-5.5,8.7-4.7,13.7c0.8,5,2.5,7.5,2.4,10.7
		c-0.1,3.2-1.8,2.5-1.3,6.8c0.4,4.3,0.4,4.3,0.4,4.3s8.3-1.1,10.8,0s2-3.9,2-3.9s-3-2.5-2.4-7.5c0.5-5,4.3-4.8,2.5-9.3
		c-1.8-4.6,1.7-7.5-0.5-12.1c-2.1-4.6,1.7-5.2,1.1-10c-0.8-4.8,1.5-7.3-1.5-5.5c-3.2,1.8-3.3-3-3.4-3.2
		C416.2,213.5,406.9,214.9,406.9,214.9z"/>
	<path id="body" class="st1" d="M162.2,212.6h249.5v52.8H162.2C162.2,265.3,144.7,251,162.2,212.6z"/>
	
		<linearGradient id="butt_1_" gradientUnits="userSpaceOnUse" x1="86.8333" y1="443.3385" x2="86.8333" y2="390.5385" gradientTransform="matrix(1 0 0 1 0 -178)">
		<stop  offset="0" style="stop-color:#9E4C23"/>
		<stop  offset="1" style="stop-color:#FEC35F"/>
	</linearGradient>
	<path id="butt" class="st2" d="M9.9,212.6h158.8v52.8H9.9C9.9,265.3-1.2,251,9.9,212.6z"/>
	
		<radialGradient id="gold_1_" cx="255.0161" cy="406.8013" r="7.2992" gradientTransform="matrix(2.2005 0 0 2.6633 -392.4063 -844.5042)" gradientUnits="userSpaceOnUse">
		<stop  offset="0" style="stop-color:#C4BF9B"/>
		<stop  offset="0.1923" style="stop-color:#C4C097"/>
		<stop  offset="0.3862" style="stop-color:#C5BD8F"/>
		<stop  offset="0.5808" style="stop-color:#C4BB82"/>
		<stop  offset="0.776" style="stop-color:#C5B871"/>
		<stop  offset="0.97" style="stop-color:#C4B358"/>
		<stop  offset="1" style="stop-color:#C5B353"/>
	</radialGradient>
	<path id="gold" class="st3" d="M168,212.6h7.1c0,0-11.8,20.6,0,52.8H168C168,265.3,155.3,241.5,168,212.6z"/>
</g>
</svg>
