<?xml version="1.0" encoding="utf-8"?>
<!-- Generator: Adobe Illustrator 22.1.0, SVG Export Plug-In . SVG Version: 6.00 Build 0)  -->
<svg version="1.1" id="Layer_1" xmlns="http://www.w3.org/2000/svg" xmlns:xlink="http://www.w3.org/1999/xlink" x="0px" y="0px"
	 viewBox="0 0 792 612" style="enable-background:new 0 0 792 612;" xml:space="preserve">
<style type="text/css">
	.st0{fill:url(#ash_1_);}
	.st1{fill:#F4F4F4;}
	.st2{fill:url(#butt_1_);}
	.st3{fill:url(#gold_1_);}
</style>
<g id="cigarette">
	
		<linearGradient id="ash_1_" gradientUnits="userSpaceOnUse" x1="545.8933" y1="308.1807" x2="554.4877" y2="308.1807" gradientTransform="matrix(1 0 0 -1 0 614)">
		<stop  offset="0" style="stop-color:#190B0C"/>
		<stop  offset="1" style="stop-color:#913B29"/>
	</linearGradient>
	<path id="ash" class="st0" d="M546.2,281.2c0,0,2.7,9.3,2.4,14.8c-0.3,5.5-3.2,8.7-2.7,13.7c0.4,5,1.5,7.5,1.4,10.7s-1,2.5-0.8,6.8
		s0.2,4.3,0.2,4.3s4.7-1.1,6.2,0s1.1-3.9,1.1-3.9s-1.7-2.5-1.4-7.5c0.3-5,2.5-4.8,1.4-9.3c-1.1-4.6,1-7.5-0.3-12.1
		c-1.2-4.6,1-5.2,0.6-10c-0.4-4.8,0.9-7.3-0.9-5.5c-1.8,1.8-1.9-3-2-3.2S546.2,281.2,546.2,281.2z"/>
	<path id="body" class="st1" d="M404.8,278.9h144.1v52.8H404.8C404.8,331.6,394.8,317.3,404.8,278.9z"/>
	
		<linearGradient id="butt_1_" gradientUnits="userSpaceOnUse" x1="324.839" y1="509.6385" x2="324.839" y2="456.8385" gradientTransform="matrix(1 0 0 1 0 -178)">
		<stop  offset="0" style="stop-color:#9E4C23"/>
		<stop  offset="1" style="stop-color:#FEC35F"/>
	</linearGradient>
	<path id="butt" class="st2" d="M247.9,278.9h158.8v52.8H247.9C247.9,331.6,236.8,317.3,247.9,278.9z"/>
	
		<radialGradient id="gold_1_" cx="363.1735" cy="431.6952" r="7.2992" gradientTransform="matrix(2.2005 0 0 2.6633 -392.4063 -844.5043)" gradientUnits="userSpaceOnUse">
		<stop  offset="0" style="stop-color:#C4BF9B"/>
		<stop  offset="0.1923" style="stop-color:#C4C097"/>
		<stop  offset="0.3862" style="stop-color:#C5BD8F"/>
		<stop  offset="0.5808" style="stop-color:#C4BB82"/>
		<stop  offset="0.776" style="stop-color:#C5B871"/>
		<stop  offset="0.97" style="stop-color:#C4B358"/>
		<stop  offset="1" style="stop-color:#C5B353"/>
	</radialGradient>
	<path id="gold" class="st3" d="M406,278.9h7.1c0,0-11.8,20.6,0,52.8H406C406,331.6,393.3,307.8,406,278.9z"/>
</g>
</svg>
