<svg id="Layer_1" data-name="Layer 1" xmlns="http://www.w3.org/2000/svg" xmlns:xlink="http://www.w3.org/1999/xlink" viewBox="0 0 524.62 52.8">
  <defs>
    <style>
      .cls-1 {
        fill: url(#linear-gradient);
      }

      .cls-2 {
        fill: #f4f4f4;
      }

      .cls-3 {
        fill: url(#linear-gradient-2);
      }

      .cls-4 {
        fill: url(#radial-gradient);
      }
    </style>
    <linearGradient id="linear-gradient" x1="639.94" y1="308.18" x2="660.58" y2="308.18" gradientTransform="matrix(1, 0, 0, -1, 0, 614)" gradientUnits="userSpaceOnUse">
      <stop offset="0" stop-color="#190b0c"/>
      <stop offset="1" stop-color="#913b29"/>
    </linearGradient>
    <linearGradient id="linear-gradient-2" x1="216.38" y1="509.64" x2="216.38" y2="456.84" gradientTransform="translate(0 -178)" gradientUnits="userSpaceOnUse">
      <stop offset="0" stop-color="#9e4c23"/>
      <stop offset="1" stop-color="#fec35f"/>
    </linearGradient>
    <radialGradient id="radial-gradient" cx="315.23" cy="431.7" r="7.3" gradientTransform="translate(-384.46 -844.5) scale(2.16 2.66)" gradientUnits="userSpaceOnUse">
      <stop offset="0" stop-color="#c4bf9b"/>
      <stop offset="0.19" stop-color="#c4c097"/>
      <stop offset="0.39" stop-color="#c5bd8f"/>
      <stop offset="0.58" stop-color="#c4bb82"/>
      <stop offset="0.78" stop-color="#c5b871"/>
      <stop offset="0.97" stop-color="#c4b358"/>
      <stop offset="1" stop-color="#c5b353"/>
    </radialGradient>
  </defs>
  <title>cigarette</title>
  <g id="cigarette">
    <path id="ash" class="cls-1" d="M640.8,281.2s6.6,9.3,5.8,14.8-7.6,8.7-6.6,13.7,3.5,7.5,3.3,10.7-2.5,2.5-1.9,6.8l.6,4.3s11.4-1.1,14.9,0,2.7-3.9,2.7-3.9a7.6,7.6,0,0,1-3.3-7.5c.8-5,6-4.8,3.4-9.3s2.3-7.5-.7-12.1,2.4-5.2,1.4-10,2.1-7.3-2.1-5.5-4.5-3-4.7-3.2S640.8,281.2,640.8,281.2Z" transform="translate(-135.96 -278.9)"/>
    <path id="body" class="cls-2" d="M301.3,278.9H647.2v52.8H301.3C301.3,331.6,277.1,317.3,301.3,278.9Z" transform="translate(-135.96 -278.9)"/>
    <path id="butt" class="cls-3" d="M140.8,278.9h156v52.8h-156C140.8,331.6,129.9,317.3,140.8,278.9Z" transform="translate(-135.96 -278.9)"/>
    <path id="gold" class="cls-4" d="M296.1,278.9h7s-11.6,20.6,0,52.8h-7C296.1,331.6,283.6,307.8,296.1,278.9Z" transform="translate(-135.96 -278.9)"/>
  </g>
</svg>
