<svg id="Layer_1" data-name="Layer 1" xmlns="http://www.w3.org/2000/svg" viewBox="0 0 726.2 346.34">
  <defs>
    <style>
      .cls-1 {
        fill: #4b4a4b;
        stroke: #383837;
        stroke-width: 3px;
      }

      .cls-1, .cls-2 {
        stroke-miterlimit: 10;
      }

      .cls-2 {
        fill: none;
        stroke: #333;
      }

      .cls-3, .cls-4 {
        isolation: isolate;
        fill: #acacac;
      }

      .cls-3 {
        font-size: 16px;
        font-family: Impact, Impact;
      }

      .cls-4 {
        font-size: 12px;
        font-family: HelveticaNeue-Italic, Helvetica Neue;
        font-style: italic;
      }

      .cls-5 {
        letter-spacing: -0.09em;
      }
    </style>
  </defs>
  <title>grid</title>
  <path id="measurement-tool" class="cls-1" d="M746.4,452.6H47.2a12,12,0,0,1-12-12V145.9a12,12,0,0,1,12-12H746.4a12,12,0,0,1,12,12V440.6A12,12,0,0,1,746.4,452.6Z" transform="translate(-33.7 -132.4)"/>
  <g id="percentage-line">
    <line class="cls-2" x1="202.2" y1="1.5" x2="202.2" y2="320.2"/>
    <line class="cls-2" x1="275.4" y1="1.5" x2="275.4" y2="320.2"/>
    <line class="cls-2" x1="349" y1="1.5" x2="349" y2="320.2"/>
    <line class="cls-2" x1="426.6" y1="1.5" x2="426.6" y2="320.2"/>
    <line class="cls-2" x1="505.6" y1="1.5" x2="505.6" y2="320.2"/>
    <line class="cls-2" x1="577.9" y1="1.5" x2="577.9" y2="320.2"/>
    <line class="cls-2" x1="647.8" y1="1.5" x2="647.8" y2="320.2"/>
    <g id="percentage">
      <text class="cls-3" transform="translate(206.17 315.78)">0%</text>
      <text class="cls-3" transform="translate(279.44 315.78)">10%</text>
      <text class="cls-3" transform="translate(353.02 315.78)">20%</text>
      <text class="cls-3" transform="translate(430.64 315.78)">30%</text>
      <text class="cls-3" transform="translate(509.63 315.78)">40%</text>
      <text class="cls-3" transform="translate(581.85 315.78)">50%</text>
      <text class="cls-3" transform="translate(651.81 315.78)">60%</text>
    </g>
  </g>
  <text class="cls-4" transform="translate(202.17 340.57)">PERCEN<tspan class="cls-5" x="47.99" y="0">T</tspan><tspan x="53.77" y="0">AGE</tspan></text>
</svg>
