<?xml version="1.0" encoding="utf-8"?>
<!-- Generator: Adobe Illustrator 22.1.0, SVG Export Plug-In . SVG Version: 6.00 Build 0)  -->
<svg version="1.1" id="Layer_1" xmlns="http://www.w3.org/2000/svg" xmlns:xlink="http://www.w3.org/1999/xlink" x="0px" y="0px"
	 viewBox="0 0 792 612" style="enable-background:new 0 0 792 612;" xml:space="preserve">
<style type="text/css">
	.st0{fill:url(#ash_1_);}
	.st1{fill:#F4F4F4;}
	.st2{fill:url(#butt_1_);}
	.st3{fill:url(#gold_1_);}
</style>
<g id="cigarette">
	
		<linearGradient id="ash_1_" gradientUnits="userSpaceOnUse" x1="539.371" y1="308.1807" x2="547.1078" y2="308.1807" gradientTransform="matrix(1 0 0 -1 0 614)">
		<stop  offset="0" style="stop-color:#190B0C"/>
		<stop  offset="1" style="stop-color:#913B29"/>
	</linearGradient>
	<path id="ash" class="st0" d="M539.7,281.2c0,0,2.5,9.3,2.2,14.8s-2.8,8.7-2.5,13.7c0.4,5,1.3,7.5,1.2,10.7s-0.9,2.5-0.7,6.8
		s0.2,4.3,0.2,4.3s4.3-1.1,5.6,0s1-3.9,1-3.9s-1.5-2.5-1.2-7.5s2.2-4.8,1.3-9.3c-1-4.6,0.9-7.5-0.3-12.1c-1.1-4.6,0.9-5.2,0.5-10
		c-0.4-4.8,0.8-7.3-0.8-5.5c-1.6,1.8-1.7-3-1.8-3.2C544.4,279.8,539.7,281.2,539.7,281.2z"/>
	<path id="body" class="st1" d="M412.4,278.9h129.7v52.8H412.4C412.4,331.6,403.3,317.3,412.4,278.9z"/>
	
		<linearGradient id="butt_1_" gradientUnits="userSpaceOnUse" x1="332.839" y1="509.6385" x2="332.839" y2="456.8385" gradientTransform="matrix(1 0 0 1 0 -178)">
		<stop  offset="0" style="stop-color:#9E4C23"/>
		<stop  offset="1" style="stop-color:#FEC35F"/>
	</linearGradient>
	<path id="butt" class="st2" d="M255.9,278.9h158.8v52.8H255.9C255.9,331.6,244.8,317.3,255.9,278.9z"/>
	
		<radialGradient id="gold_1_" cx="366.8091" cy="431.6952" r="7.2992" gradientTransform="matrix(2.2005 0 0 2.6633 -392.4063 -844.5043)" gradientUnits="userSpaceOnUse">
		<stop  offset="0" style="stop-color:#C4BF9B"/>
		<stop  offset="0.1923" style="stop-color:#C4C097"/>
		<stop  offset="0.3862" style="stop-color:#C5BD8F"/>
		<stop  offset="0.5808" style="stop-color:#C4BB82"/>
		<stop  offset="0.776" style="stop-color:#C5B871"/>
		<stop  offset="0.97" style="stop-color:#C4B358"/>
		<stop  offset="1" style="stop-color:#C5B353"/>
	</radialGradient>
	<path id="gold" class="st3" d="M414,278.9h7.1c0,0-11.8,20.6,0,52.8H414C414,331.6,401.3,307.8,414,278.9z"/>
</g>
</svg>
